<svg width="24" height="16" viewBox="0 0 24 16" fill="none" xmlns="http://www.w3.org/2000/svg">
<path d="M16.802 5.71429C16.802 2.55714 13.0418 0 8.40102 0C3.76026 0 0 2.55714 0 5.71429C0 6.93929 0.569492 8.06786 1.5348 9C0.993582 10.0786 0.100974 10.9357 0.088857 10.9464C0 11.0286 -0.0242337 11.15 0.0282727 11.2571C0.0807791 11.3643 0.19387 11.4286 0.323116 11.4286C1.80137 11.4286 3.02518 10.9893 3.90567 10.5357C5.20621 11.0964 6.74505 11.4286 8.40102 11.4286C13.0418 11.4286 16.802 8.87143 16.802 5.71429ZM21.7296 13.5714C22.6949 12.6429 23.2644 11.5107 23.2644 10.2857C23.2644 7.89643 21.1035 5.85 18.042 4.99643C18.0784 5.23214 18.0945 5.47143 18.0945 5.71429C18.0945 9.49643 13.7446 12.5714 8.40102 12.5714C7.96481 12.5714 7.54072 12.5429 7.12067 12.5036C8.39294 14.5571 11.3818 16 14.8633 16C16.5193 16 18.0582 15.6714 19.3587 15.1071C20.2392 15.5607 21.463 16 22.9413 16C23.0705 16 23.1876 15.9321 23.2361 15.8286C23.2886 15.725 23.2644 15.6036 23.1755 15.5179C23.1634 15.5071 22.2708 14.6536 21.7296 13.5714Z" fill="#FFA500"/>
</svg>
