<svg width="30" height="21" viewBox="0 0 30 21" fill="none" xmlns="http://www.w3.org/2000/svg">
<path d="M29.7 4.6C29.7 4.6 29.4 2.5 28.5 1.6C27.4 0.4 26.1 0.4 25.5 0.3C21.3 1.78814e-07 15 0 15 0C15 0 8.7 1.78814e-07 4.5 0.3C3.9 0.4 2.6 0.4 1.5 1.6C0.6 2.5 0.3 4.6 0.3 4.6C0.3 4.6 0 7 0 9.4V11.6C0 14 0.3 16.5 0.3 16.5C0.3 16.5 0.6 18.6 1.5 19.5C2.6 20.7 4.1 20.7 4.8 20.8C7.2 20.9 15 21 15 21C15 21 21.3 21 25.5 20.7C26.1 20.6 27.4 20.6 28.5 19.4C29.4 18.5 29.7 16.4 29.7 16.4C29.7 16.4 30 14 30 11.6V9.4C30 7 29.7 4.6 29.7 4.6ZM11.9 14.4V6L20 10.2L11.9 14.4Z" fill="white"/>
</svg>
